<svg width="137" height="137" viewBox="0 0 137 137" fill="none" xmlns="http://www.w3.org/2000/svg">
<path fill-rule="evenodd" clip-rule="evenodd" d="M62.007 52.6438C61.7134 52.2331 60.974 51.8433 60.3268 51.8754C59.6796 51.9074 59.0702 52.175 58.4893 52.4595C58.9329 52.7829 59.4318 53.0317 59.9583 53.192C60.1249 53.2427 60.5019 53.3922 61.3153 53.0563" fill="#E7EAEE"/>
<path fill-rule="evenodd" clip-rule="evenodd" d="M16.6878 97.2829C0.00014019 74.6413 44.703 68.5519 71.257 51.17C85.7267 41.6983 92.3447 31.337 104.851 31.6184C130.418 32.1936 131.464 80.4889 126.035 89.1647C105.562 121.879 23.5949 106.654 16.6878 97.2829Z" fill="#64FCD9"/>
<path fill-rule="evenodd" clip-rule="evenodd" d="M69.5959 66.6169C75.1725 66.6169 80.8466 67.1439 85.8516 69.6451C86.4415 69.94 87.1222 70.4877 86.9094 71.1188C86.8295 71.3557 86.6344 71.5313 86.4404 71.6863C84.1725 73.4981 81.1581 73.9583 78.2887 74.2838C77.1737 74.4103 76.0573 74.5259 74.9391 74.6195C66.0669 75.3626 57.0823 74.7103 48.405 72.6932C47.8941 72.5745 47.299 72.3723 47.1572 71.8607C46.9847 71.2388 47.6085 70.7074 48.1609 70.3854C52.4353 67.8936 57.32 66.488 62.2481 66.3315C61.3713 66.4682 73.9142 66.6491 69.5959 66.6169Z" fill="white"/>
<path fill-rule="evenodd" clip-rule="evenodd" d="M101.591 48.9139C100.44 51.2311 99.478 53.6864 99.2129 56.2637C99.2014 56.3747 99.1926 56.4932 99.2442 56.5921C99.3484 56.792 99.6237 56.802 99.8475 56.7873C105.03 56.4458 110.387 57.4657 114.783 60.2504C116.286 61.2022 117.667 62.3494 119.226 63.2053C119.294 63.243 119.373 63.2814 119.448 63.2593C119.524 63.2372 119.569 63.1616 119.607 63.0921C120.555 61.3701 121.393 59.5878 122.118 57.7594C122.374 57.1112 122.619 56.4474 122.683 55.7524C122.843 54.003 121.692 52.2178 120.04 51.6539C115.807 50.2087 111.574 48.7635 107.34 47.3184C106.567 47.0542 105.782 46.7879 104.968 46.7289C104.153 46.6699 103.29 46.8405 102.662 47.3665C102.178 47.7713 101.873 48.3474 101.591 48.9139Z" fill="white"/>
<path d="M86.0289 103.928C86.0205 104.365 87.0674 104.689 87.3872 104.391C87.7071 104.092 87.745 103.608 87.7619 103.172C87.99 97.292 88.0354 91.5909 87.9143 85.7081L103.364 89.7059L102.674 105.326C102.653 105.768 103.339 105.933 103.673 105.641C104.007 105.349 104.062 104.859 104.093 104.417C104.411 99.8675 104.467 95.2966 104.718 90.7499C104.851 88.341 107.95 88.341 110.963 85.3704C112.462 83.8913 113.742 81.8506 113.742 81.8506C113.98 87.3748 114.44 92.9131 114.026 98.427C113.994 98.8461 114.644 99.0163 114.964 98.7437C115.272 98.482 115.336 98.0429 115.368 97.6374L115.372 97.5869C115.799 91.8149 116.292 79.463 116.907 71.3721C117.14 68.3087 117.799 65.3737 118.186 63.6324C118.356 62.8639 117.822 62.8771 116.755 62.3975C116.318 62.2012 115.341 63.6407 114.898 67.7264L114.875 67.9414C114.715 69.5668 114.576 72.6346 114.456 77.1447C114.263 78.1783 113.099 78.4172 110.963 77.8614L110.879 77.8394C108.69 77.2555 105.331 76.1895 100.804 74.6413L100.773 74.2145C100.28 67.3578 100.448 62.566 101.277 59.839L101.303 59.7554C102.607 55.6043 100.43 57.3205 100.183 57.6521C98.5272 59.8722 98.1708 62.7094 98.1814 65.2672L98.2129 72.957C98.2128 73.7599 98.1745 74.598 97.7345 75.2637C97.3569 75.835 96.7389 76.1916 96.1343 76.5197L88.6614 80.561C87.9726 80.9361 87.2871 81.3335 86.745 81.8965C86.1486 82.5157 85.7427 83.3787 85.8805 84.2262C85.9723 84.7913 86.2033 85.2312 86.5733 85.5459L86.438 89.5011C86.232 95.6612 86.0956 100.47 86.0289 103.928Z" fill="white"/>
<path d="M49.5097 104.293C49.5181 104.73 48.8366 104.871 48.5167 104.573C48.1969 104.275 48.159 103.791 48.1421 103.354C47.914 97.4746 47.6859 91.5908 47.807 85.708C42.6472 87.2522 37.4875 88.7963 32.3278 90.3405C32.5676 95.3355 32.8074 100.33 33.0473 105.325C33.0685 105.768 32.3826 105.933 32.0483 105.641C31.7141 105.349 31.6593 104.859 31.6284 104.417C31.3101 99.8674 31.1016 95.3098 31.0032 90.7499C30.991 90.1819 30.5414 89.7314 30.1228 89.3461C27.4082 86.8476 24.6936 84.3491 21.9791 81.8505C21.741 87.3748 21.8294 92.913 22.2438 98.4269C22.2752 98.846 21.6257 99.0162 21.305 98.7436C20.9843 98.471 20.9284 98.006 20.8974 97.5868C20.2297 88.5567 20.6825 79.4717 20.0088 70.442C19.8468 68.2715 19.6123 66.0739 18.8145 64.0481C20.243 63.7162 36.9316 60.282 35.5178 58.1113C37.4232 59.8232 37.5505 62.7093 37.5399 65.2672C37.5295 67.7771 37.5191 70.287 37.5087 72.7969C37.5052 73.6473 37.5175 74.5536 37.9868 75.2636C38.3795 75.8578 39.0322 76.2198 39.6594 76.5589C42.0574 77.8556 44.4554 79.1523 46.8533 80.449C47.6101 80.8582 48.38 81.2772 48.9764 81.8964C49.5727 82.5156 49.9786 83.3786 49.8408 84.2262C49.703 85.0737 48.8974 85.8251 48.0442 85.7109C48.9482 85.9032 48.8609 85.6995 49.148 85.5458C49.2686 91.795 49.3891 98.0442 49.5097 104.293Z" fill="white"/>
<path d="M19.9249 65.645C19.6765 64.8938 19.4281 64.1426 19.1797 63.3914C19.5257 63.4777 31.8508 59.1239 34.1176 58.4657C34.3392 58.4014 34.4647 58.3723 34.4735 58.3862C35.9615 60.7395 35.996 63.6949 35.9836 66.4786C35.9721 69.0637 35.9606 71.6489 35.9491 74.234C35.9466 74.8035 35.8318 75.5259 35.2792 75.665C32.0093 76.4877 28.7859 77.4946 25.6292 78.6792C24.6983 79.0285 23.7251 79.3998 22.7384 79.2764C22.2197 79.2115 21.7288 79.0121 21.2449 78.8147C20.9309 78.6866 20.5635 78.4836 20.5644 78.1446C20.5717 75.3743 20.5791 72.604 20.5864 69.8337C20.5884 69.0994 20.59 68.3609 20.4705 67.6363C20.3583 66.9566 20.1412 66.2992 19.9249 65.645Z" fill="white"/>
<path fill-rule="evenodd" clip-rule="evenodd" d="M68.4267 0.12326C68.3408 0.147153 68.2051 0.130901 68.2187 0.0428364C68.2701 0.0164931 68.3275 -0.0106129 68.3832 0.00420055C68.439 0.019014 68.4753 0.0997196 68.4304 0.136015L68.4267 0.12326Z" fill="#00160A"/>
<path fill-rule="evenodd" clip-rule="evenodd" d="M13.884 57.9205L15.5528 62.2409C15.7133 62.6567 15.892 63.0964 16.256 63.3553C16.864 63.7879 17.7042 63.5449 18.3991 63.2714C19.8129 62.7147 21.1996 62.0931 22.5862 61.4714C24.0928 60.796 25.5993 60.1206 27.1404 59.5287C30.1 58.392 33.2397 57.5604 36.4086 57.7035C36.9145 57.7264 37.3304 57.2493 37.4202 56.753C37.5099 56.2568 37.3579 55.7523 37.2077 55.2708L36.0746 51.64C35.6886 50.4031 35.2832 49.13 34.4457 48.1389C33.6081 47.1477 32.2188 46.5006 30.9851 46.9118L16.0556 51.889C14.2981 52.475 13.1048 54.4067 13.3725 56.2327C13.4579 56.8155 13.6717 57.3708 13.884 57.9205ZM33.5889 47.7612C34.8071 48.8183 35.3847 50.412 35.8881 51.9409C36.3193 53.2507 36.732 54.5683 37.0458 55.9108C37.115 56.2072 37.1794 56.5174 37.106 56.8128C37.0325 57.1081 36.7787 57.3818 36.4731 57.3754C33.4682 57.3122 30.4906 58.0102 27.6571 59.0081C25.582 59.739 23.5699 60.6301 21.5579 61.5212L21.5577 61.5213C20.8225 61.847 20.0872 62.1726 19.3489 62.4904C18.7542 62.7464 18.1499 62.9995 17.5099 63.0996C16.9933 63.1803 16.3262 63.0613 16.1881 62.5592C15.9475 61.6842 15.5894 60.8492 15.2311 60.0137L15.231 60.0137C14.9953 59.4639 14.7593 58.9139 14.5567 58.352C14.0462 56.9362 13.7529 55.3611 14.2389 53.9368C14.3895 53.4955 14.621 53.0683 14.9817 52.7712C15.3014 52.5079 15.7004 52.3631 16.0911 52.2238C20.9123 50.504 25.767 48.8773 30.6515 47.345C31.1854 47.1775 31.7431 47.0092 32.2961 47.0956C32.7818 47.1715 33.2183 47.4396 33.5889 47.7612ZM19.1804 63.3916L19.9256 65.6453C20.1419 66.2994 20.359 66.9568 20.4712 67.6365C20.5907 68.3612 20.5891 69.0996 20.5871 69.834L20.5651 78.1449C20.5642 78.4838 20.9316 78.6868 21.2456 78.8149C21.7295 79.0124 22.2204 79.2117 22.7391 79.2766C23.7139 79.3986 24.6757 79.0376 25.5965 78.692L25.5965 78.692L25.6299 78.6794C28.7866 77.4948 32.01 76.4879 35.2799 75.6652C35.8325 75.5261 35.9473 74.8037 35.9498 74.2342L35.9843 66.4788C35.9967 63.6952 35.9622 60.7397 34.4742 58.3864C34.3756 58.2305 34.2085 58.0571 34.038 58.1277C34.8641 59.5677 35.3808 61.1839 35.5431 62.8358C35.6178 63.5958 35.6184 64.3609 35.6189 65.1245L35.6249 74.2475C35.6252 74.7073 35.5361 75.2906 35.0909 75.4065C32.2635 76.1421 29.4283 76.8803 26.7078 77.9448C26.6006 77.9867 26.493 78.0292 26.385 78.0719L26.385 78.0719C25.0318 78.6067 23.6196 79.1647 22.2007 78.9033C21.5328 78.7802 20.8024 78.3269 20.8157 77.6483L20.9177 72.4422C20.972 69.6665 21.0091 66.7956 19.9307 64.2371C19.7787 63.8765 19.5602 63.4863 19.1804 63.3916ZM36.5337 76.7623C33.0004 77.3544 29.5317 78.3097 26.204 79.6073C25.6587 79.82 25.1172 80.0417 24.5758 80.2635L23.8042 80.5795C23.629 80.4073 23.8915 80.1472 24.1179 80.0463C27.8647 78.3765 31.8463 77.2059 35.9168 76.5774C36.1485 76.5416 36.4548 76.5476 36.5337 76.7623ZM31.4299 52.2427C31.3902 52.4325 31.4635 52.6335 31.5856 52.7817C31.7188 52.9432 31.9456 53.0548 32.1321 52.9646C32.3926 52.8386 32.3736 52.4374 32.2198 52.1878C32.1311 52.044 31.9963 51.9118 31.8308 51.9014C31.6419 51.8895 31.4696 52.0529 31.4299 52.2427ZM31.9852 52.6921C31.8506 52.7524 31.6756 52.62 31.692 52.4703C31.7084 52.3207 31.9076 52.2314 32.0258 52.3207C32.144 52.4101 32.1197 52.6318 31.9852 52.6921ZM23.731 55.1828C23.5328 54.9562 23.4909 54.5422 23.7169 54.3492C23.7606 54.3119 23.8125 54.2845 23.8676 54.2774C23.9927 54.2612 24.1083 54.3485 24.2018 54.4406C24.4094 54.6452 24.5799 55.0004 24.4051 55.2386C24.2454 55.4562 23.9073 55.3844 23.731 55.1828ZM24.0924 54.683C24.0449 54.6338 23.9875 54.5808 23.9226 54.5909C23.7981 54.6102 23.8009 54.8127 23.8614 54.933C23.9295 55.0686 24.096 55.1942 24.1996 55.0887C24.306 54.9804 24.1979 54.7923 24.0924 54.683ZM20.0284 55.9845C19.9158 56.0781 19.9018 56.2388 19.9148 56.3804C19.93 56.546 19.9738 56.7156 20.0844 56.8445C20.1949 56.9733 20.3842 57.0512 20.5504 56.999C20.7104 56.9487 20.8132 56.7882 20.8232 56.6285C20.8332 56.4687 20.7642 56.3123 20.6683 56.1807C20.5238 55.9827 20.2195 55.826 20.0284 55.9845ZM20.2459 56.2387C20.3439 56.1726 20.5189 56.283 20.4564 56.3806L20.507 56.4815C20.6333 56.4962 20.6094 56.7088 20.4855 56.7364C20.3616 56.7641 20.2435 56.6626 20.1937 56.5514C20.1467 56.4463 20.1478 56.3048 20.2459 56.2387ZM27.1384 50.2684C27.2664 50.2915 27.3965 50.3351 27.4871 50.4282C27.5777 50.5212 27.6163 50.6737 27.548 50.784C27.489 50.8793 27.3717 50.9189 27.2625 50.9454C27.1027 50.9841 26.9324 51.0095 26.7755 50.9604C26.6186 50.9112 26.4808 50.7683 26.487 50.6045C26.4975 50.3276 26.8648 50.219 27.1384 50.2684ZM27.0333 50.5479C26.9205 50.4849 26.7565 50.5561 26.726 50.6813C26.9154 50.7953 27.1715 50.7876 27.3537 50.6626C27.3155 50.5454 27.1576 50.4861 27.0512 50.549L27.0333 50.5479ZM48.9621 103.928L48.6004 85.1807C48.3133 85.3343 48.2835 85.726 48.2905 86.051L48.6811 104.238C48.1539 104.274 47.9496 103.572 47.9274 103.046C47.6787 97.1489 47.5351 91.2477 47.4967 85.3457C48.3498 85.46 49.1554 84.7086 49.2933 83.861C49.4311 83.0134 49.0251 82.1505 48.4288 81.5312C47.8324 80.912 47.0625 80.493 46.3058 80.0838L39.1119 76.1938C38.4846 75.8546 37.8319 75.4926 37.4392 74.8985C36.9699 74.1884 36.9576 73.2822 36.9612 72.4318L36.9923 64.902C37.0029 62.3442 36.8757 59.458 34.9702 57.7462C36.3841 59.9169 36.7502 62.6045 36.7603 65.1931C36.764 66.1686 36.7225 67.1448 36.681 68.1207V68.1207V68.1208V68.1208V68.1209V68.1209V68.121V68.1211V68.1211V68.1212V68.1212V68.1213V68.1213V68.1214V68.1215V68.1215V68.1215V68.1215V68.1215V68.1216V68.1216V68.1216V68.1216V68.1217V68.1217V68.1217V68.1217V68.1218V68.1218C36.6124 69.7349 36.5438 71.3471 36.6799 72.954C36.7444 73.715 36.8661 74.5028 37.2979 75.1335C37.6454 75.641 38.1647 76.003 38.6857 76.3312C39.9216 77.1096 41.2366 77.7655 42.5497 78.4204L42.5498 78.4205C44.6089 79.4475 46.6634 80.4722 48.4007 81.9633C48.8395 82.3399 49.166 83.196 48.6073 83.3473C43.0359 84.8555 37.5334 86.6165 32.1223 88.623C31.7036 88.7783 31.272 88.4556 30.9419 88.1554L22.2544 80.2539C21.9409 79.9688 21.3961 80.1563 21.169 80.5137C20.942 80.8711 20.9418 81.3216 20.9489 81.7446L21.2301 98.4039C20.6422 97.8378 20.5602 96.9414 20.5208 96.1272C20.335 92.2967 20.2916 88.4597 20.2482 84.6233C20.1855 79.0772 20.1228 73.5323 19.6301 68.0101C19.4934 66.4777 19.2797 64.8433 18.2669 63.6829C19.0647 65.7087 19.2992 67.9064 19.4612 70.0769C19.799 74.6039 19.8536 79.1448 19.9082 83.6858C19.9626 88.2023 20.0169 92.7188 20.3498 97.2217C20.3808 97.6408 20.4367 98.1058 20.7574 98.3784C21.0781 98.651 21.7277 98.4809 21.6962 98.0618C21.2818 92.5479 21.1934 87.0096 21.4315 81.4854L29.5752 88.981C29.9938 89.3662 30.4434 89.8167 30.4556 90.3847C30.5541 94.9447 30.7625 99.5023 31.0808 104.052C31.1117 104.494 31.1665 104.984 31.5008 105.276C31.835 105.568 32.5209 105.403 32.4997 104.96L31.7802 89.9753L47.2594 85.3429C47.1383 91.2257 47.3664 97.1095 47.5945 102.989C47.6114 103.425 47.6493 103.91 47.9691 104.208C48.289 104.506 48.9706 104.365 48.9621 103.928ZM30.4351 89.474L21.6161 81.1012C21.4655 80.9582 21.3027 80.7458 21.4068 80.5664C21.546 80.3267 21.9132 80.495 22.1187 80.6813L31.4826 89.1675C37.1981 87.1255 42.9842 85.2804 48.8273 83.6366C48.9869 83.8554 48.8977 84.1816 48.7034 84.3704C48.5091 84.5593 48.2391 84.6445 47.9797 84.7236L32.0489 89.5814C31.8484 89.6426 31.63 89.7171 31.522 89.8964C31.437 90.0374 31.4402 90.2124 31.4463 90.3768C31.5129 92.1518 31.626 93.9258 31.739 95.6995L31.739 95.6996L31.739 95.6997L31.739 95.6997L31.739 95.6998L31.739 95.6999L31.739 95.7L31.739 95.7001L31.739 95.7001L31.739 95.7002L31.739 95.7003L31.7391 95.7004L31.7391 95.7005L31.7391 95.7005L31.7391 95.7006C31.9449 98.9312 32.1508 102.161 32.076 105.395C31.1146 103.709 31.0551 101.677 31.0199 99.7379L30.8603 90.9451C30.8508 90.4204 30.8163 89.8358 30.4351 89.474ZM19.4054 53.8556C19.342 53.8957 19.2655 53.9097 19.1908 53.9102C18.9652 53.9116 18.7335 53.777 18.6563 53.5614C18.579 53.3458 18.6964 53.0673 18.9146 53.009C19.0823 52.9641 19.2616 53.0492 19.3838 53.1743C19.5649 53.3597 19.6236 53.7175 19.4054 53.8556ZM19.0953 53.2776C18.9528 53.2425 18.8605 53.4727 18.9582 53.584C19.0559 53.6953 19.2357 53.6841 19.3648 53.6131L19.0996 53.2828L19.0953 53.2776ZM34.2556 50.266L33.9107 50.0014C33.8421 49.9487 33.7681 49.894 33.6842 49.8915C33.5432 49.8874 33.4303 50.0441 33.4283 50.1978C33.4264 50.3515 33.509 50.4928 33.61 50.6C33.752 50.7505 33.9623 50.8549 34.1479 50.7799C34.3336 50.705 34.4174 50.3903 34.2556 50.266ZM33.6455 50.2719C33.681 50.1861 33.812 50.1789 33.8552 50.2603L33.8737 50.277C34.0134 50.2926 34.1246 50.4522 34.1011 50.6031C33.9172 50.5641 33.7492 50.442 33.6455 50.2719ZM28.2015 56.4947C28.1467 56.3903 28.1106 56.2662 28.1432 56.1521C28.2101 55.9175 28.5239 55.8659 28.7343 55.9721C29.004 56.1083 29.1599 56.5287 28.9395 56.7411C28.7203 56.9524 28.3449 56.7682 28.2015 56.4947ZM28.5241 56.5022L28.7305 56.5979C28.8281 56.512 28.8164 56.326 28.709 56.2544C28.6016 56.1827 28.4359 56.2504 28.4031 56.3793L28.524 56.5021L28.5241 56.5022ZM28.8319 53.8722C28.9168 53.6783 28.8106 53.4526 28.6359 53.3112C28.5337 53.2285 28.3974 53.1649 28.2592 53.1823C28.058 53.2078 27.9302 53.4042 27.9505 53.5798C27.9708 53.7553 28.1023 53.9067 28.2512 54.027C28.4261 54.1682 28.747 54.066 28.8319 53.8722ZM28.4304 53.4535C28.5066 53.4916 28.5484 53.5653 28.5806 53.6364L28.5707 53.6673C28.6872 53.7014 28.5901 53.8786 28.4685 53.8632C28.3468 53.8478 28.2769 53.7374 28.2305 53.6386C28.2106 53.5963 28.1913 53.5494 28.208 53.5062C28.2358 53.4338 28.3542 53.4154 28.4304 53.4535ZM32.2425 56.1781C32.1462 56.0243 32.1054 55.8054 32.2164 55.6631C32.3882 55.4427 32.7356 55.5913 32.9171 55.8029C32.9875 55.8849 33.0524 55.9806 33.062 56.0907C33.0792 56.2879 32.8958 56.4621 32.7078 56.4673C32.5198 56.4726 32.3461 56.3434 32.2425 56.1781ZM32.6926 55.9581L32.5124 55.8282C32.4388 55.8989 32.4246 56.0283 32.4809 56.1149C32.5373 56.2014 32.657 56.2341 32.7462 56.1873C32.8079 56.1226 32.7732 55.9908 32.6886 55.9689L32.6926 55.9581ZM30.5551 49.0777C30.506 49.1444 30.5014 49.2299 30.5081 49.3098C30.5241 49.5009 30.6045 49.6983 30.7749 49.8118C30.9453 49.9254 31.2162 49.9224 31.3463 49.7713C31.5135 49.5769 31.367 49.2855 31.1632 49.1223C30.99 48.9836 30.6834 48.9034 30.5551 49.0777ZM30.8423 49.2821C30.9273 49.2227 31.0852 49.3002 31.0508 49.3924L31.1068 49.4073C31.1537 49.4956 31.1522 49.6039 31.1028 49.6912C31.0009 49.6605 30.8955 49.6217 30.8298 49.5446C30.7641 49.4676 30.7572 49.3415 30.8423 49.2821ZM15.7536 54.0524C15.8776 53.8598 16.1857 53.882 16.3827 54.005C16.5727 54.1237 16.712 54.3959 16.5545 54.5529C16.4745 54.6326 16.3477 54.6475 16.2332 54.6386C16.0788 54.6266 15.9212 54.5758 15.8157 54.4661C15.7103 54.3564 15.6717 54.1796 15.7536 54.0524ZM16.1692 54.1584L15.9734 54.2525C16.0497 54.3777 16.2187 54.4419 16.3627 54.4004C16.3829 54.2958 16.2906 54.1845 16.1805 54.1809L16.1692 54.1584ZM22.6351 52.0032C22.8038 52.1208 23.0374 52.1002 23.2161 51.9995C23.2837 51.9615 23.3492 51.9082 23.3725 51.8327C23.4162 51.6907 23.2942 51.5532 23.1719 51.4736C22.98 51.3489 22.7004 51.2866 22.5455 51.4573C22.4064 51.6106 22.4664 51.8856 22.6351 52.0032ZM22.7066 51.7065C22.6972 51.6218 22.8144 51.5477 22.8697 51.6112L22.8803 51.5909C22.9788 51.5892 23.0757 51.651 23.1179 51.7425C23.0478 51.788 22.9737 51.8349 22.891 51.8398C22.8083 51.8447 22.716 51.7912 22.7066 51.7065ZM21.1606 59.086C21.3304 58.9665 21.5985 59.0293 21.6976 59.2118C21.7967 59.3943 21.7035 59.6536 21.5109 59.7311C21.3447 59.798 21.1341 59.7222 21.0485 59.5647C20.963 59.4071 21.014 59.1891 21.1606 59.086ZM21.4869 59.5188C21.527 59.3818 21.397 59.2251 21.2551 59.2393C21.2172 59.3792 21.3351 59.5389 21.4799 59.5437L21.4869 59.5188ZM18.1788 60.3502C18.0972 60.4192 18.079 60.5488 18.0857 60.6634C18.1042 60.9797 18.3759 61.3201 18.6319 61.1873C18.7791 61.111 18.8454 60.8984 18.802 60.7229C18.7586 60.5474 18.6258 60.4126 18.476 60.343C18.3801 60.2984 18.2618 60.2801 18.1788 60.3502ZM18.491 60.638C18.5783 60.6631 18.6186 60.8027 18.5611 60.8806L18.6216 60.9595C18.5037 60.9798 18.3493 60.9448 18.3263 60.8133C18.3089 60.7139 18.4037 60.613 18.491 60.638ZM17.6316 58.1714C17.5948 58.2123 17.5487 58.2449 17.4977 58.266C17.407 58.3036 17.3009 58.3035 17.2103 58.2655C17.0187 58.1852 16.9291 57.9265 17.0304 57.7463C17.1318 57.566 17.4006 57.5059 17.5701 57.6257C17.7395 57.7455 17.7702 58.0173 17.6316 58.1714ZM17.441 58.1273C17.5601 58.0393 17.4798 57.8083 17.3313 57.812C17.2652 57.8519 17.2152 57.9175 17.1945 57.9916C17.2626 58.0546 17.3475 58.0995 17.4382 58.1205L17.441 58.1273ZM35.7956 55.2256C35.7483 55.062 35.6704 54.8707 35.4809 54.8301C35.2775 54.7864 35.0843 54.968 35.073 55.1486C35.0615 55.3306 35.207 55.5218 35.4155 55.551C35.624 55.5802 35.8467 55.4024 35.7956 55.2256ZM35.4986 55.1702C35.5594 55.2403 35.4757 55.3597 35.3755 55.3458L35.3872 55.3112C35.3221 55.2968 35.2885 55.2201 35.3264 55.1721C35.3643 55.1241 35.4593 55.1231 35.4986 55.1702ZM34.3482 52.5333C34.2996 52.2996 34.5293 52.0536 34.7655 52.0864C35.035 52.124 35.1729 52.5136 34.987 52.7127C34.8011 52.9117 34.4036 52.8001 34.3482 52.5333ZM34.6747 52.6399C34.7779 52.6641 34.8926 52.5688 34.8818 52.4632C34.8709 52.3577 34.7302 52.289 34.6437 52.3503C34.5572 52.4116 34.5822 52.5743 34.6846 52.6015L34.6747 52.6399ZM25.559 57.2746C25.5351 57.1919 25.4835 57.1184 25.4151 57.0697C25.1861 56.9067 24.8159 57.1364 24.8447 57.4237C24.8734 57.7109 25.2811 57.8562 25.4729 57.6476C25.5619 57.5508 25.596 57.4029 25.559 57.2746ZM25.1 57.4633C25.0768 57.3755 25.1679 57.2796 25.2525 57.3026C25.3371 57.3256 25.3714 57.4557 25.3099 57.5205C25.2485 57.5852 25.1231 57.5511 25.1 57.4633Z" fill="#00160A"/>
<path fill-rule="evenodd" clip-rule="evenodd" d="M105.823 48.4774C105.862 48.5065 105.887 48.5465 105.907 48.5875C105.993 48.773 105.94 49.0159 105.742 49.1208C105.544 49.2256 105.224 49.1136 105.216 48.9138C105.214 48.85 105.24 48.788 105.27 48.7295C105.319 48.6335 105.382 48.5378 105.483 48.4789C105.584 48.42 105.731 48.4087 105.823 48.4774ZM105.691 48.7768C105.752 48.7599 105.733 48.6629 105.669 48.6642C105.505 48.7071 105.428 48.9037 105.529 49.0226C105.61 48.957 105.667 48.8698 105.69 48.7763L105.691 48.7768ZM113.265 51.6999C113.416 51.7549 113.585 51.677 113.71 51.5807C113.846 51.4751 113.965 51.3341 113.982 51.1693C113.999 51.0046 113.88 50.8217 113.704 50.806C113.58 50.795 113.465 50.8632 113.369 50.9369C113.24 51.0357 113.12 51.1573 113.081 51.3085C113.043 51.4597 113.11 51.6432 113.265 51.6999ZM113.823 51.1294L113.482 51.4468L113.475 51.4581L113.343 51.3702C113.385 51.272 113.431 51.1687 113.522 51.1054C113.613 51.0421 113.763 51.0402 113.823 51.1294ZM116.986 53.4754C116.853 53.342 116.908 53.1049 117.001 52.9374C117.068 52.8164 117.157 52.6991 117.282 52.6504C117.407 52.6017 117.572 52.6482 117.621 52.7785C117.652 52.8597 117.633 52.9515 117.611 53.0357C117.57 53.1892 117.514 53.347 117.4 53.4514C117.285 53.5558 117.096 53.585 116.986 53.4754ZM117.441 53.0107C117.455 52.9834 117.466 52.9533 117.462 52.9231C117.456 52.8919 117.432 52.8653 117.402 52.859C117.214 52.9147 117.086 53.1365 117.125 53.3382C117.26 53.2688 117.373 53.1519 117.441 53.0107ZM115.74 56.5975C115.939 56.7516 116.223 56.5399 116.345 56.3217C116.427 56.1745 116.488 56.0164 116.527 55.8531C116.551 55.7523 116.554 55.6221 116.461 55.5724C116.416 55.5484 116.361 55.5521 116.311 55.561C115.973 55.6207 115.69 55.9035 115.636 56.2343C115.614 56.3646 115.634 56.5156 115.74 56.5975ZM116.296 55.876C116.312 55.9263 116.276 55.9773 116.243 56.0185L115.901 56.4356C115.842 56.1897 115.992 55.9127 116.233 55.8214C116.262 55.8268 116.287 55.8486 116.296 55.876ZM86.6555 81.917C86.4715 82.3561 86.65 82.9771 87.1153 83.0826C91.8412 84.1543 96.5071 85.4885 101.084 87.077C102.601 87.6033 104.289 88.1552 105.763 87.5184C106.335 87.2709 106.82 86.8619 107.295 86.4586L112.249 82.2532C110.588 84.4784 108.534 86.4104 106.208 87.9332C105.652 88.2976 105.063 88.6453 104.407 88.7588C103.591 88.9 102.762 88.6649 101.967 88.4322L88.0545 84.3586C87.4986 84.1958 86.8025 83.6624 87.1574 83.2057C86.6981 83.375 86.7318 84.0268 86.8518 84.5002L101.903 88.8853C102.616 89.093 103.355 89.303 104.091 89.2006C104.822 89.0989 105.473 88.6994 106.091 88.2979C108.723 86.5894 111.302 84.5839 112.759 81.81C112.802 81.729 112.844 81.6467 112.887 81.5637C113.269 80.8225 113.675 80.0337 114.443 79.75C114.575 85.9736 114.476 92.2021 114.146 98.4184C114.124 98.8353 114.778 98.9838 115.085 98.7C115.393 98.4163 115.427 97.952 115.441 97.5347L116.243 73.4606C116.355 70.0765 116.497 66.5734 118.003 63.5388C116.232 66.3002 116.075 69.7567 115.971 73.033L115.208 97.1609C115.189 97.7589 115.087 98.484 114.533 98.7143L114.826 79.4745C113.891 79.3901 113.222 80.3045 112.667 81.0632L112.657 81.0775C111.046 83.2797 108.784 84.9056 106.562 86.4928C105.625 87.1617 104.48 87.8642 103.397 87.4722C97.9977 85.5179 92.492 83.8558 86.9123 82.4957C87.6272 81.443 88.6945 80.6854 89.768 79.9995C91.6932 78.7694 93.7167 77.6923 95.8131 76.782L95.9599 76.7183C96.9315 76.2979 97.9431 75.86 98.5851 75.0263C99.4489 73.9047 99.4287 72.3635 99.3925 70.9498C99.3428 69.0078 99.336 67.0648 99.3722 65.1226C99.4216 62.4736 99.5765 59.7271 100.811 57.3808C99.383 58.6356 99.243 60.7676 99.2064 62.6649L99.027 71.9667C99.0046 73.1281 98.9206 74.4307 98.0527 75.2056C97.7263 75.497 97.3198 75.6799 96.9202 75.8598L96.9201 75.8598L96.8924 75.8723C93.6883 77.3149 90.5971 79.0069 87.6562 80.9276C87.257 81.1883 86.8395 81.478 86.6555 81.917ZM103.557 105.224C103.337 105.415 102.875 105.312 102.891 105.028C103.173 99.8783 103.486 94.7299 103.829 89.5834C103.677 89.4855 103.54 89.7285 103.529 89.9037L102.701 103.184C102.658 103.878 102.615 104.581 102.749 105.264C102.826 105.658 103.464 105.709 103.758 105.423C104.051 105.136 104.088 104.697 104.108 104.296L104.85 89.5739C104.859 89.3867 104.771 89.1185 104.583 89.1717L103.82 104.435C103.806 104.718 103.777 105.033 103.557 105.224ZM88.4107 85.1546L87.8269 102.834C87.8142 103.217 87.225 103.35 86.9178 103.11C86.6106 102.871 86.5323 102.453 86.4912 102.072C86.2995 100.297 86.4517 98.509 86.6034 96.7271C86.6269 96.4515 86.6503 96.176 86.6725 95.9008C86.9575 92.3621 87.0296 88.8072 86.8885 85.2603C86.8844 85.1571 87.0484 85.1202 87.1275 85.1889C87.2066 85.2577 87.2184 85.372 87.2246 85.4751C87.4283 88.9097 87.1893 92.346 86.9502 95.7824C86.8577 97.1122 86.7652 98.4421 86.6983 99.7719C86.6528 100.678 86.6208 101.601 86.8574 102.478C86.904 102.651 86.9723 102.836 87.1295 102.929C87.2866 103.021 87.5471 102.943 87.553 102.764L88.1251 85.5342C88.1311 85.3507 88.2319 85.0966 88.4107 85.1546ZM119.071 57.206C119.11 57.1972 119.151 57.1926 119.186 57.21C119.244 57.2381 119.268 57.314 119.277 57.3833C119.315 57.6962 119.116 58.023 118.84 58.1011C118.722 58.1344 118.558 58.0883 118.552 57.9539C118.535 57.6117 118.769 57.2756 119.071 57.206ZM119.036 57.6498C119.091 57.5966 119.115 57.5074 119.095 57.4297C118.912 57.4749 118.766 57.6666 118.757 57.8748C118.874 57.8538 118.98 57.769 119.035 57.6528L119.036 57.6498ZM108.082 55.7846C108.049 55.7242 108.001 55.6716 107.945 55.6319C107.75 55.4949 107.45 55.5446 107.309 55.7372C107.168 55.9297 107.211 56.2323 107.399 56.3779C107.588 56.5235 107.89 56.4873 108.039 56.3012C108.154 56.1584 108.172 55.9446 108.082 55.7846ZM107.754 56.207C107.617 56.2279 107.489 56.067 107.539 55.9374C107.59 55.8078 107.792 55.7769 107.879 55.8855C107.965 55.9942 107.891 56.186 107.754 56.207ZM118.092 59.78C118.137 59.8027 118.178 59.8455 118.184 59.8987C118.189 59.9364 118.177 59.9739 118.165 60.0096L118.099 60.2021C118.054 60.3321 118.007 60.4667 117.914 60.5634C117.821 60.66 117.669 60.7065 117.559 60.6321C117.37 60.5036 117.469 60.1878 117.611 60.0028C117.73 59.847 117.921 59.6949 118.092 59.78ZM117.853 60.2741C117.922 60.2094 117.949 60.0981 117.917 60.0062C117.729 60.0624 117.616 60.3131 117.693 60.505L117.859 60.2816L117.853 60.2741ZM111.552 56.5972C111.537 56.5627 111.518 56.5287 111.489 56.5046C111.397 56.4271 111.256 56.4842 111.161 56.5575C111.038 56.6518 110.929 56.7761 110.891 56.9276C110.853 57.0792 110.903 57.2596 111.035 57.3404C111.265 57.4808 111.566 57.2322 111.603 56.9632C111.62 56.8395 111.602 56.7111 111.552 56.5972ZM111.168 57.1552C111.079 57.1188 111.066 56.9708 111.148 56.9193L111.146 56.9196L111.353 56.7169C111.432 56.8786 111.338 57.1007 111.168 57.1552ZM104.014 55.4468C103.968 55.4939 103.909 55.5281 103.845 55.5447C103.584 55.6127 103.313 55.3011 103.409 55.0448C103.506 54.7885 103.912 54.7427 104.061 54.9713C104.155 55.115 104.134 55.3251 104.014 55.4468ZM103.803 55.0544C103.718 55.0385 103.627 55.1146 103.626 55.2033C103.625 55.2921 103.714 55.37 103.8 55.356C103.892 55.274 103.906 55.1158 103.829 55.0188L103.803 55.0544ZM120.425 54.6152C120.617 54.515 120.702 54.2548 120.74 54.015C120.773 53.8013 120.51 53.6619 120.342 53.759C120.174 53.8561 120.093 54.0761 120.025 54.2786C119.949 54.5058 120.233 54.7153 120.425 54.6152ZM120.467 53.9611C120.542 53.9829 120.56 54.1225 120.494 54.1687L120.494 54.1666C120.488 54.286 120.378 54.3834 120.277 54.359C120.281 54.2019 120.354 54.0492 120.467 53.9611ZM112.263 54.8235C112.069 54.8227 111.936 54.5628 111.984 54.3525C112.032 54.1422 112.207 53.9944 112.39 53.9219C112.521 53.87 112.668 53.9973 112.697 54.1492C112.727 54.301 112.669 54.4583 112.589 54.5858C112.512 54.7095 112.398 54.824 112.263 54.8235ZM112.478 54.3671L112.499 54.2027C112.321 54.1689 112.143 54.3758 112.18 54.5737C112.216 54.6025 112.264 54.6131 112.308 54.6022C112.343 54.5112 112.398 54.4301 112.467 54.3682L112.478 54.3671ZM108.083 53.5448C108.287 53.5488 108.428 53.3749 108.48 53.2121C108.521 53.0865 108.52 52.93 108.395 52.8527C108.254 52.7665 108.047 52.8372 107.93 52.9444C107.825 53.0397 107.756 53.1689 107.777 53.2965C107.799 53.424 107.928 53.5417 108.083 53.5448ZM108.168 53.0336C108.248 53.0091 108.326 53.114 108.264 53.1625L108.259 53.1539C108.228 53.2279 108.168 53.2933 108.091 53.3374C108.011 53.2421 108.049 53.0942 108.168 53.0336ZM115.621 58.6632C115.628 58.6296 115.633 58.5939 115.621 58.562C115.602 58.5131 115.546 58.4883 115.494 58.4806C115.269 58.4474 115.074 58.6409 114.969 58.8418C114.876 59.0194 114.851 59.2907 115.035 59.3717C115.211 59.4493 115.391 59.2682 115.476 59.0955C115.542 58.9584 115.591 58.8127 115.621 58.6632ZM115.198 58.9581C115.164 58.8991 115.198 58.8127 115.263 58.7923L115.257 58.7977C115.305 58.7932 115.34 58.8554 115.321 58.8999C115.301 58.9443 115.246 58.9649 115.198 58.9581ZM109.749 50.3912C109.64 50.4922 109.519 50.5853 109.379 50.6207C109.336 50.6317 109.303 50.5792 109.287 50.5339C109.199 50.2844 109.213 49.9664 109.4 49.7929C109.588 49.6195 109.955 49.7279 109.965 49.9946C109.971 50.1536 109.861 50.2876 109.749 50.3912ZM109.703 49.9449C109.536 49.9326 109.418 50.1583 109.467 50.3318C109.617 50.2855 109.726 50.1192 109.717 49.9515L109.703 49.9449ZM104.85 51.6221C104.842 51.4927 104.753 51.3608 104.631 51.3532C104.533 51.347 104.444 51.4213 104.388 51.5075C104.299 51.6422 104.267 51.8337 104.354 51.97C104.44 52.1064 104.663 52.1291 104.742 51.9873C104.803 51.8756 104.858 51.7515 104.85 51.6221ZM104.512 51.9272L104.497 51.753L104.499 51.751C104.523 51.6755 104.572 51.6092 104.635 51.567C104.696 51.6947 104.636 51.8713 104.512 51.9272ZM100.973 54.2071C101.057 54.347 101.002 54.5364 100.923 54.6801C100.897 54.7292 100.865 54.7785 100.819 54.8046C100.721 54.86 100.599 54.7856 100.536 54.6856C100.444 54.5385 100.439 54.321 100.549 54.1894C100.659 54.0578 100.883 54.058 100.973 54.2071ZM100.668 54.4268C100.667 54.4777 100.723 54.5179 100.766 54.4973C100.808 54.4768 100.819 54.4044 100.784 54.3703C100.749 54.3436 100.691 54.3808 100.695 54.428L100.668 54.4268ZM101.825 51.718C102.004 51.7253 102.156 51.5208 102.098 51.3505C102.085 51.3094 102.061 51.2717 102.03 51.2413C101.903 51.1153 101.653 51.1642 101.582 51.3293C101.511 51.4944 101.646 51.7107 101.825 51.718ZM101.867 51.3441C101.947 51.3457 101.894 51.4955 101.815 51.4797L101.816 51.4829C101.785 51.435 101.812 51.3608 101.867 51.3441Z" fill="#00160A"/>
<path fill-rule="evenodd" clip-rule="evenodd" d="M119.205 51.041C120.18 51.374 121.195 51.7318 121.907 52.4798C122.8 53.417 123.057 54.8281 122.883 56.1152C122.709 57.4024 122.159 58.6027 121.615 59.7805C121 61.1118 120.386 62.443 119.771 63.7742C117.745 62.7926 116.003 61.3108 114.065 60.1624C109.837 57.6567 104.787 56.8215 99.887 57.0524C99.4748 57.0718 98.9391 57.0132 98.8377 56.6103C98.8075 56.4904 98.8274 56.3641 98.8484 56.2422C99.3214 53.49 100.242 50.8164 101.563 48.3605C101.759 47.9964 101.966 47.6329 102.251 47.3344C102.909 46.6451 103.913 46.3832 104.861 46.4252C105.809 46.4672 106.723 46.7771 107.622 47.0841C111.483 48.4031 115.344 49.7221 119.205 51.041ZM101.591 48.9141C100.44 51.2313 99.4776 53.6866 99.2125 56.2639C99.201 56.375 99.1922 56.4934 99.2438 56.5923C99.348 56.7923 99.6234 56.8022 99.8471 56.7875C105.03 56.4461 110.386 57.4659 114.783 60.2506C116.286 61.2024 117.667 62.3496 119.225 63.2055C119.294 63.2433 119.372 63.2816 119.447 63.2596C119.523 63.2374 119.569 63.1619 119.607 63.0923C120.554 61.3703 121.393 59.588 122.117 57.7596C122.374 57.1114 122.619 56.4476 122.682 55.7527C122.842 54.0032 121.691 52.218 120.04 51.6541C115.807 50.209 111.573 48.7638 107.34 47.3186C106.566 47.0544 105.782 46.7881 104.967 46.7291C104.152 46.6701 103.29 46.8407 102.661 47.3667C102.178 47.7715 101.872 48.3476 101.591 48.9141Z" fill="#00160A"/>
<path fill-rule="evenodd" clip-rule="evenodd" d="M67.1927 59.775C66.9438 59.9148 66.6201 59.6986 66.5256 59.431C66.452 59.2226 66.4689 58.9987 66.4858 58.7761C66.4905 58.7129 66.4953 58.6498 66.498 58.5872C66.5234 57.9954 66.3588 57.4202 66.1946 56.8463C66.1434 56.6675 66.0923 56.4888 66.047 56.3098C65.2935 53.334 66.2418 49.9938 68.4506 47.8436C68.7336 48.3815 69.4883 48.5233 70.0628 48.3136C70.6374 48.1038 71.0713 47.6376 71.4792 47.1851C71.8871 46.7327 72.3142 46.2624 72.8838 46.0397C72.4576 45.9669 72.014 45.9961 71.6012 46.124C71.5377 45.5455 70.9264 45.0863 70.347 45.1819C69.9514 45.2471 69.6375 44.8769 69.3913 44.5632C69.1451 44.2495 68.7514 43.9224 68.3889 44.0925C68.855 44.3715 68.8176 45.0576 68.6213 45.5608C68.5855 45.6526 68.5462 45.745 68.5067 45.8379C68.3295 46.2543 68.1482 46.6806 68.2584 47.108C68.3633 47.5147 68.0313 47.8898 67.7466 48.2007C66.1491 49.9454 65.2901 52.3339 65.4143 54.6863C64.9444 54.0542 64.3474 53.5152 63.6686 53.1103C63.5421 53.0348 63.4116 52.9629 63.2808 52.8908C62.8174 52.6355 62.3509 52.3784 62.0489 51.9548C61.6928 51.4552 61.0338 51.239 60.4168 51.2576C59.7997 51.2762 59.2087 51.4938 58.6307 51.7088C58.4703 51.7684 58.2832 51.8616 58.271 52.0309C58.262 52.1571 58.3588 52.2644 58.454 52.3487C59.3658 53.1554 60.7877 53.3374 61.8764 52.7866C62.2727 52.5861 62.7523 52.7789 63.1315 53.0093C65.3342 54.3475 66.5683 57.0909 66.1003 59.6084C65.7329 59.7458 65.3379 59.7275 64.9408 59.7092C64.7224 59.6991 64.5034 59.689 64.288 59.7048C63.681 59.7491 62.9863 60.1891 63.0926 60.7829C63.3392 62.1592 63.5858 63.5738 63.313 64.9453C63.2338 65.3432 63.112 65.7306 62.9902 66.1181C62.9024 66.3972 62.8146 66.6764 62.7427 66.9597C62.5624 67.67 62.4829 68.4054 62.5073 69.1374C62.5138 69.3337 62.5301 69.5376 62.6286 69.7081C62.7739 69.9595 63.0655 70.0859 63.3427 70.178C64.2374 70.4754 65.1941 70.5882 66.1342 70.507C66.845 70.4457 67.646 70.1943 67.9158 69.5399C68.0862 69.1267 67.9964 68.659 67.9103 68.2208C67.501 66.1389 67.2406 63.9344 67.9583 61.9362C67.9831 61.8673 68.009 61.7981 68.0351 61.7287C68.1884 61.3201 68.3451 60.9026 68.2784 60.4773C68.2004 59.9798 67.6349 59.5268 67.1927 59.775ZM65.2182 66.0789L64.6439 67.2989C64.5764 67.4422 64.5355 67.6595 64.684 67.7173C65.0839 67.1593 65.3683 66.5204 65.5143 65.8515C65.568 65.6053 65.7908 65.4224 66.0327 65.3449C66.2746 65.2675 66.5351 65.2776 66.7888 65.2939C66.9311 65.303 67.0881 65.3207 67.1837 65.4255C67.2596 65.5087 67.2778 65.6273 67.2927 65.7384L67.6908 68.7073C67.7258 68.9682 67.7592 69.2431 67.6593 69.4869C67.4904 69.8991 67.0072 70.0814 66.5666 70.1671C65.4839 70.3777 64.3407 70.2732 63.3151 69.8699C63.1704 69.813 63.0223 69.7461 62.9244 69.6261C62.7939 69.4662 62.778 69.245 62.7753 69.0394C62.758 67.7078 63.0637 66.3731 63.6593 65.1793L65.0491 65.6833C65.1337 65.7139 65.2277 65.7534 65.2601 65.8367C65.2907 65.9154 65.2542 66.0025 65.2182 66.0789ZM65.3309 65.3718C65.2392 65.4764 65.0646 65.5232 64.9583 65.4332C64.5965 65.1267 64.0942 64.9898 63.6251 65.0698C63.7932 64.0764 63.6685 63.0723 63.5435 62.0664C63.484 61.5868 63.4243 61.1068 63.3964 60.6273C63.3931 60.5714 63.3916 60.5107 63.4241 60.4648C63.4773 60.3896 63.5888 60.3931 63.6807 60.4045L65.8705 60.6767C65.9455 60.686 66.0231 60.6962 66.0873 60.7356C66.2686 60.8467 66.2499 61.1093 66.2088 61.3165L65.4798 64.9887C65.4528 65.1246 65.4226 65.2672 65.3309 65.3718ZM65.8469 64.5053C66.177 63.2401 66.4018 61.948 66.5181 60.6462C67.0545 60.7344 67.6221 60.6213 68.0824 60.3347C67.9906 60.7649 67.8757 61.1927 67.7608 61.6203C67.4878 62.637 67.215 63.6527 67.2522 64.6974L67.2526 64.707C67.2558 64.7954 67.2591 64.8871 67.2226 64.9676C67.1848 65.0511 67.0884 65.1166 67.001 65.0872C66.5931 64.95 66.1196 65.0228 65.7728 65.276C65.7112 65.0252 65.7795 64.7634 65.8448 64.5132L65.8469 64.5053ZM68.7065 47.6336C68.4749 47.2942 68.427 46.8481 68.5425 46.4546C68.5964 46.2707 68.6838 46.0904 68.7707 45.9112C68.9447 45.5522 69.1165 45.1979 69.0123 44.8281C68.9823 44.7215 68.9468 44.5739 69.0485 44.5281C69.4517 44.8756 69.7168 45.3763 69.7763 45.9025C69.7937 46.0562 69.7912 46.2223 69.7058 46.3518C69.6222 46.4787 69.4797 46.5435 69.3376 46.608C69.2877 46.6307 69.2378 46.6534 69.1906 46.6787C69.0088 46.7761 68.8414 46.9926 68.9429 47.171C69.8176 46.5333 70.9382 46.2359 72.0175 46.355C71.7283 46.5373 71.4625 46.7557 71.2281 47.0035C71.1468 47.0895 71.0667 47.1805 70.9861 47.2721C70.6381 47.6675 70.2803 48.074 69.7707 48.1368C69.3603 48.1873 68.9382 47.9731 68.7065 47.6336ZM60.3267 51.51C60.9739 51.4779 61.7132 51.8677 62.0068 52.2783L61.3152 52.6909C60.5422 53.01 60.1633 52.891 59.9846 52.8348C59.9753 52.8319 59.9665 52.8291 59.9582 52.8266C59.4317 52.6663 58.9327 52.4175 58.4891 52.0941C59.07 51.8096 59.6795 51.542 60.3267 51.51ZM71.2334 46.0147C71.2008 46.0589 71.1424 46.0742 71.0886 46.0867L70.2015 46.2915C70.1588 46.3013 70.1133 46.3111 70.0719 46.2968C69.9625 46.259 69.9706 46.1023 70.0135 45.9956C70.0564 45.889 70.1089 45.7559 70.0309 45.671C69.9363 45.5681 70.1125 45.4309 70.2526 45.4204C70.5839 45.3954 70.9237 45.5203 71.1585 45.7532C71.2291 45.8233 71.2923 45.9348 71.2334 46.0147ZM66.1947 60.1589C66.2698 60.2447 66.2262 60.42 66.1117 60.4139C65.4093 60.3763 64.7107 60.2698 64.0293 60.0965C64.632 59.9557 65.2612 60.0022 65.8786 60.0496C65.9929 60.0583 66.1196 60.073 66.1947 60.1589ZM67.7725 60.0833C67.8036 60.1534 67.7605 60.2459 67.6865 60.2679C67.3212 60.3767 66.9427 60.442 66.5619 60.462C66.464 60.3981 66.4928 60.2357 66.5863 60.1657C66.6798 60.0958 66.806 60.0919 66.9231 60.0908L67.7725 60.0833ZM69.5773 66.8548C74.8841 66.8944 80.4664 67.0067 85.0534 69.7129C85.4937 69.9727 85.4992 70.664 85.192 71.0759C84.8847 71.4879 84.3784 71.685 83.895 71.848C82.3701 72.3623 80.7991 72.7358 79.2077 72.9625C77.703 73.1768 76.1833 73.2598 74.6653 73.3283C65.808 73.7279 56.8203 73.6292 48.2391 71.3686C48.2039 71.0541 48.4837 70.8039 48.7402 70.6234C52.6518 67.8695 57.5412 67.0646 62.2481 66.3313C57.32 66.4877 52.4353 67.8934 48.1609 70.3851C47.6085 70.7071 46.9847 71.2385 47.1572 71.8604C47.299 72.372 47.8941 72.5742 48.405 72.693C57.0823 74.7101 66.0669 75.3623 74.9391 74.6192C76.0573 74.5256 77.1737 74.41 78.2887 74.2835C81.1581 73.958 84.1725 73.4978 86.4404 71.686C86.6344 71.531 86.8295 71.3554 86.9094 71.1185C87.1222 70.4875 86.4415 69.9397 85.8516 69.6448C80.8466 67.1436 75.115 66.161 69.5773 66.8548ZM86.4174 70.3635C86.7008 70.7229 86.7013 71.3481 86.3031 71.5686C85.0038 72.2881 83.6846 73.0056 82.2526 73.3865C81.4948 73.5881 80.7155 73.6924 79.9382 73.7919C78.4286 73.9852 76.9169 74.1623 75.4013 74.2989C66.2191 75.1262 56.9068 74.4505 47.9344 72.3059C47.5158 72.2058 47.3353 71.6427 47.5096 71.2441C47.6465 70.9311 47.932 70.7171 48.2497 70.586C48.0291 70.7704 47.9699 71.1962 48.156 71.4572C48.403 71.8036 48.8567 71.9109 49.2707 71.9915C54.1733 72.9458 59.1349 73.6598 64.1257 73.7734C65.7256 73.8098 67.3261 73.7845 68.9261 73.7592C73.6453 73.6846 78.4127 73.604 82.9945 72.4555C83.921 72.2232 84.8922 71.9129 85.5102 71.1755C85.6278 71.0352 85.7328 70.8747 85.7594 70.6925C85.8154 70.3086 85.5193 69.9737 85.2458 69.7023C85.6773 69.8446 86.1341 70.0042 86.4174 70.3635ZM48.5151 70.4966C48.4113 70.4911 48.3219 70.5256 48.2497 70.586C48.3365 70.5501 48.4258 70.5204 48.5151 70.4966ZM48.8026 70.3463C48.7306 70.3628 48.6452 70.2766 48.6898 70.2169L48.7265 70.2556C48.7594 70.1673 48.8865 70.1339 48.9575 70.1949C48.9199 70.2593 48.8747 70.3297 48.8026 70.3463ZM78.8408 103.451C79.2252 104.667 80.1664 105.807 81.4151 105.966C81.8666 106.024 82.2061 105.36 81.8998 105.019C81.5934 104.677 80.9103 104.958 80.9243 105.419C80.1393 105.107 79.5894 104.354 79.3118 103.547C79.0342 102.739 78.9909 101.871 78.9503 101.017L78.7852 97.5497C78.7297 96.3854 78.6267 95.1065 77.8152 94.2812C77.6389 94.102 77.4355 93.9522 77.2324 93.8028C76.9723 93.6114 76.7129 93.4204 76.5118 93.1684C76.0409 92.5785 75.9723 91.7659 75.9486 91.0072C75.8185 86.8309 76.4565 82.6314 77.8201 78.6887C77.9095 78.4303 78.0021 78.1726 78.0947 77.9147L78.0947 77.9147C78.4682 76.8746 78.8424 75.8326 79.0095 74.7412C78.7993 74.687 78.653 74.9449 78.5864 75.1542L77.2417 79.3775C76.8909 80.4794 76.5396 81.5828 76.2785 82.7101C75.665 85.3591 75.5582 88.0982 75.454 90.8173C75.4288 91.4741 75.4106 92.1648 75.7077 92.7489C75.9226 93.1714 76.2759 93.4873 76.631 93.8049C76.8886 94.0353 77.1471 94.2665 77.3544 94.5398C77.8123 95.1434 77.9923 95.9132 78.1234 96.6631C78.2963 97.6518 78.4048 98.6522 78.4481 99.6554C78.4586 99.8989 78.4654 100.144 78.4722 100.388L78.4722 100.389L78.4722 100.389L78.4722 100.389L78.4722 100.389C78.501 101.426 78.5298 102.468 78.8408 103.451ZM81.2222 105.281C81.2602 105.135 81.481 105.083 81.5751 105.2L81.6003 105.179C81.6934 105.297 81.6303 105.504 81.4865 105.543C81.3428 105.582 81.1842 105.427 81.2222 105.281ZM52.431 107.019C52.3698 106.627 52.8251 106.371 53.2074 106.294L53.2539 106.284C53.6265 106.209 54.0598 106.122 54.1978 105.768C54.7527 104.344 54.7821 102.771 54.8112 101.208C54.8458 99.3539 54.8801 97.5135 55.7903 95.9509C56.2269 95.2014 56.8402 94.5735 57.4988 94.0171C57.5491 93.9745 57.6001 93.9319 57.6512 93.8892C58.1849 93.443 58.7436 92.9759 58.9311 92.3077C59.0359 91.9347 59.0105 91.5383 58.9842 91.1512L58.476 83.6642C58.4111 82.7084 58.3462 81.7518 58.2173 80.8028C57.9534 78.8583 57.4234 76.9608 56.8115 75.0992C57.2934 75.3759 57.511 75.9551 57.6712 76.4942C58.5953 79.6042 58.8108 82.8797 59.0205 86.1219L59.3489 91.2C59.409 92.1286 59.3581 93.2709 58.5462 93.6983C57.2572 94.3767 56.2319 95.5588 55.7302 96.945C55.249 98.2747 55.2485 99.7122 55.2481 101.14C55.2479 101.463 55.2478 101.786 55.2421 102.107C55.2113 103.844 54.9505 105.712 53.7796 106.977C53.5867 107.185 53.356 107.381 53.0781 107.424C52.8002 107.468 52.4752 107.302 52.431 107.019ZM52.6877 107.009C52.6743 107.092 52.7567 107.165 52.8386 107.17C52.9206 107.176 52.9981 107.135 53.0687 107.092C53.2944 106.955 53.5027 106.788 53.6867 106.597C53.5435 106.487 53.3395 106.491 53.1749 106.563C53.0103 106.635 52.8776 106.765 52.7551 106.898C52.7254 106.93 52.6947 106.965 52.6877 107.009ZM68.8673 94.8273C68.8373 97.24 69.1501 99.6421 69.4623 102.034C69.5492 102.7 69.6392 103.377 69.912 103.99C70.0354 104.267 70.2776 104.566 70.5697 104.499C70.661 104.478 70.7411 104.422 70.8091 104.357C71.0749 104.101 71.1569 103.629 70.9075 103.357C70.658 103.085 70.0948 103.228 70.0783 103.599C69.5898 100.973 69.2775 98.3131 69.1441 95.644C69.1292 95.3469 69.0979 95.0109 68.8673 94.8273ZM70.713 103.543C70.7258 103.594 70.6983 103.645 70.6718 103.69L70.4562 104.057L70.3132 104.029C70.2972 103.882 70.329 103.73 70.4024 103.603C70.4707 103.484 70.6794 103.409 70.713 103.543ZM68.9108 90.4713C68.8368 89.6685 68.8671 88.8598 68.9032 88.0543C69.0906 83.8763 69.4343 79.7056 69.9334 75.5543C69.9454 75.4547 69.9688 75.3384 70.0582 75.2967C70.2438 75.2102 70.3466 75.5213 70.3234 75.7282C69.7676 80.7001 69.4016 85.6951 69.2685 90.6975C69.2655 90.8072 69.1024 90.8428 69.0204 90.7718C68.9384 90.7007 68.9209 90.5806 68.9108 90.4713Z" fill="#00160A"/>
<path d="M71.089 94.7524C69.9787 94.6772 68.8684 94.602 67.7582 94.5268C66.2271 94.4231 64.6912 94.3188 63.1855 94.0259C62.1341 93.8214 61.101 93.5254 60.1021 93.1423C59.9934 93.1006 59.8801 93.0543 59.8072 92.9644C59.6679 92.7926 59.7374 92.5219 59.8989 92.3703C60.0604 92.2187 60.2858 92.1572 60.5021 92.1051C65.0781 91.0021 69.8825 91.7121 74.5171 92.5418C74.868 92.6046 75.2293 92.6722 75.5276 92.8653C75.8259 93.0584 76.0481 93.4113 75.9761 93.7566C75.8917 94.1619 75.4612 94.3929 75.0631 94.5207C73.7927 94.9285 72.4215 94.8426 71.089 94.7524" fill="white"/>
<path fill-rule="evenodd" clip-rule="evenodd" d="M71.089 94.7524C69.9787 94.6772 68.8684 94.602 67.7582 94.5268C66.2271 94.4231 64.6912 94.3188 63.1855 94.0259C62.1341 93.8214 61.101 93.5254 60.1021 93.1423C59.9934 93.1006 59.8801 93.0543 59.8072 92.9644C59.6679 92.7926 59.7374 92.5219 59.8989 92.3703C60.0604 92.2187 60.2858 92.1572 60.5021 92.1051C65.0781 91.0021 69.8825 91.7121 74.5171 92.5418C74.868 92.6046 75.2293 92.6722 75.5276 92.8653C75.8259 93.0584 76.0481 93.4113 75.9761 93.7566C75.8917 94.1619 75.4612 94.3929 75.0631 94.5207C73.7927 94.9285 72.4215 94.8426 71.089 94.7524M59.9991 92.8286C63.6001 94.0591 67.4721 94.2152 71.2794 94.3598C72.2139 94.3952 73.1492 94.4307 74.0841 94.4073C74.4533 94.3981 74.8545 94.3672 75.1289 94.1229C75.4034 93.8785 75.4194 93.3447 75.0772 93.2072C73.0892 92.4089 70.905 92.2613 68.7635 92.127C66.2147 91.9671 63.6373 91.8143 61.1216 92.2499C60.6912 92.3244 60.2125 92.4516 59.9991 92.8286Z" fill="#00160A"/>
<path fill-rule="evenodd" clip-rule="evenodd" d="M114.833 77.6586C115.053 76.4455 115.17 75.2136 115.182 73.9805C115.202 72.0874 114.976 70.194 115.083 68.3039C115.189 66.4137 115.67 64.4658 116.907 63.0408C116.794 63.8252 116.549 64.5902 116.187 65.2939C115.475 66.6785 115.451 68.3057 115.442 69.8653C115.429 72.265 115.416 74.6648 115.403 77.0645C115.399 77.7964 114.897 78.466 114.252 78.8011C113.606 79.1363 112.843 79.1755 112.126 79.0585C111.556 78.9655 111.006 78.7801 110.459 78.5954C107.217 77.5007 103.975 76.4061 100.733 75.3115C100.472 75.2235 100.164 75.0779 100.146 74.8015C99.8603 70.6104 99.8443 66.4007 100.098 62.2076C100.207 60.4033 100.448 58.4235 101.767 57.1982C101.367 58.0478 100.965 58.9028 100.719 59.81C100.395 61.0029 100.351 62.2519 100.308 63.4878C100.179 67.2279 100.051 70.9855 100.489 74.7017C100.51 74.8779 100.572 75.0971 100.746 75.1203C102.19 75.3117 103.573 75.8123 104.943 76.3095C106.842 76.9987 108.741 77.6879 110.64 78.3771C111.102 78.5447 111.57 78.7138 112.059 78.7557C112.759 78.8157 113.452 78.6122 114.125 78.4108C114.326 78.3509 114.539 78.2825 114.668 78.1174C114.77 77.9886 114.804 77.8203 114.833 77.6586Z" fill="#00160A"/>
<path fill-rule="evenodd" clip-rule="evenodd" d="M111.792 79.666C108.914 79.4811 106.25 78.2019 103.495 77.3673C102.527 77.0738 101.542 76.8344 100.558 76.5951C99.9189 76.4395 99.2793 76.284 98.6396 76.1285C99.8903 75.8083 101.202 76.2122 102.429 76.6122C105.55 77.6301 108.671 78.6481 111.792 79.666Z" fill="#00160A"/>
<path fill-rule="evenodd" clip-rule="evenodd" d="M60.9803 51.9889C61.075 51.9919 61.1599 52.0049 61.2953 52.0376L62.0786 52.2425C62.1207 52.2534 62.1597 52.2633 62.1939 52.2719C62.2428 52.2842 62.2725 52.3339 62.2602 52.3828C62.2479 52.4317 62.1982 52.4614 62.1493 52.4491L61.8673 52.3765L61.3347 52.2357L61.2948 52.2256C61.145 52.1879 61.0637 52.1743 60.9745 52.1714L60.9518 52.1717C60.7859 52.1776 60.0046 52.2547 59.5006 52.2876C59.4503 52.2909 59.4068 52.2528 59.4035 52.2024C59.4002 52.1521 59.4384 52.1086 59.4887 52.1054L59.6794 52.0918C60.181 52.054 60.8389 51.9901 60.9691 51.9888L60.9803 51.9889Z" fill="#00160A"/>
<path fill-rule="evenodd" clip-rule="evenodd" d="M60.8741 51.6645C60.9116 51.6308 60.9694 51.6339 61.0031 51.6715L61.2982 52.0005C61.3319 52.038 61.3288 52.0957 61.2912 52.1294C61.2537 52.1631 61.1959 52.16 61.1623 52.1224L60.8671 51.7934C60.8334 51.7559 60.8365 51.6982 60.8741 51.6645Z" fill="#00160A"/>
<path fill-rule="evenodd" clip-rule="evenodd" d="M61.2751 51.9979C61.316 52.0275 61.3251 52.0846 61.2955 52.1254L61.0208 52.5045C60.9912 52.5453 60.9341 52.5544 60.8932 52.5248C60.8524 52.4952 60.8433 52.4381 60.8729 52.3973L61.1476 52.0182C61.1772 51.9774 61.2343 51.9683 61.2751 51.9979Z" fill="#00160A"/>
<path fill-rule="evenodd" clip-rule="evenodd" d="M59.829 51.7938C59.8525 51.7492 59.9078 51.7322 59.9524 51.7557L60.4236 52.0047C60.4682 52.0282 60.4852 52.0835 60.4617 52.1281C60.4381 52.1727 60.3829 52.1898 60.3383 52.1662L59.867 51.9172C59.8224 51.8937 59.8054 51.8384 59.829 51.7938Z" fill="#00160A"/>
<path fill-rule="evenodd" clip-rule="evenodd" d="M60.4214 52.0375C60.4538 52.0762 60.4487 52.1338 60.4101 52.1662L59.9244 52.5734C59.8858 52.6058 59.8282 52.6008 59.7958 52.5621C59.7634 52.5235 59.7684 52.4659 59.8071 52.4335L60.2927 52.0262C60.3314 51.9938 60.389 51.9989 60.4214 52.0375Z" fill="#00160A"/>
<path fill-rule="evenodd" clip-rule="evenodd" d="M64.6847 67.7177C64.5363 67.6599 64.5772 67.4426 64.6446 67.2994C64.8361 66.8927 65.0275 66.486 65.219 66.0793C65.255 66.0029 65.2915 65.9158 65.2609 65.8371C65.2285 65.7538 65.1345 65.7144 65.0499 65.6837C64.5866 65.5157 64.1234 65.3477 63.6601 65.1797C63.0644 66.3735 62.7588 67.7082 62.7761 69.0398C62.7788 69.2455 62.7947 69.4666 62.9251 69.6266C63.023 69.7465 63.1712 69.8134 63.3159 69.8704C64.3415 70.2736 65.4846 70.3781 66.5674 70.1675C67.0079 70.0818 67.4912 69.8995 67.66 69.4874C67.76 69.2435 67.7266 68.9687 67.6916 68.7077C67.5589 67.7181 67.4262 66.7285 67.2935 65.7389C67.2786 65.6277 67.2604 65.5092 67.1845 65.426C67.0889 65.3211 66.9319 65.3034 66.7895 65.2943C66.5359 65.278 66.2754 65.2679 66.0335 65.3454C65.7916 65.4228 65.5688 65.6057 65.5151 65.8519C65.369 66.5208 65.0847 67.1598 64.6847 67.7177Z" fill="#E7EAEE"/>
<path fill-rule="evenodd" clip-rule="evenodd" d="M63.6248 65.0699C64.094 64.9899 64.5962 65.1268 64.9581 65.4333C65.0643 65.5233 65.239 65.4765 65.3307 65.372C65.4223 65.2674 65.4526 65.1248 65.4795 64.9889C65.7225 63.7648 65.9655 62.5407 66.2086 61.3166C66.2497 61.1094 66.2684 60.8468 66.0871 60.7357C66.0229 60.6964 65.9453 60.6862 65.8703 60.6768C65.1404 60.5861 64.4104 60.4954 63.6805 60.4047C63.5885 60.3932 63.4771 60.3898 63.4238 60.465C63.3914 60.5108 63.3929 60.5715 63.3962 60.6275C63.4828 62.1125 63.8732 63.603 63.6248 65.0699Z" fill="white"/>
<path fill-rule="evenodd" clip-rule="evenodd" d="M68.0827 60.335C67.6224 60.6216 67.0548 60.7346 66.5184 60.6465C66.4021 61.9482 66.1773 63.2404 65.8472 64.5056C65.7813 64.7581 65.7109 65.0228 65.7732 65.2762C66.1199 65.0231 66.5935 64.9503 67.0013 65.0875C67.0887 65.1169 67.1851 65.0513 67.2229 64.9679C67.2607 64.8844 67.2558 64.7891 67.2525 64.6976C67.1996 63.2136 67.7725 61.7878 68.0827 60.335Z" fill="white"/>
<path fill-rule="evenodd" clip-rule="evenodd" d="M64.0293 60.0965C64.7106 60.2698 65.4093 60.3763 66.1117 60.4139C66.2262 60.42 66.2698 60.2447 66.1947 60.1589C66.1196 60.073 65.9929 60.0583 65.8785 60.0495C65.2611 60.0022 64.632 59.9556 64.0293 60.0965Z" fill="white"/>
<path fill-rule="evenodd" clip-rule="evenodd" d="M66.5619 60.4623C66.9428 60.4422 67.3212 60.3769 67.6865 60.2682C67.7606 60.2461 67.8036 60.1537 67.7726 60.0835C67.4894 60.086 67.2063 60.0885 66.9232 60.0911C66.806 60.0921 66.6799 60.096 66.5863 60.166C66.4928 60.2359 66.4641 60.3984 66.5619 60.4623" fill="white"/>
<path fill-rule="evenodd" clip-rule="evenodd" d="M68.5427 46.4548C68.4273 46.8483 68.4752 47.2944 68.7068 47.6339C68.9385 47.9734 69.3605 48.1876 69.771 48.137C70.3986 48.0598 70.796 47.461 71.2284 47.0037C71.4627 46.756 71.7286 46.5375 72.0178 46.3553C70.9385 46.2362 69.8178 46.5336 68.9431 47.1713C68.8417 46.9929 69.0091 46.7763 69.1909 46.6789C69.3727 46.5815 69.5931 46.5235 69.7061 46.3521C69.7915 46.2226 69.794 46.0565 69.7766 45.9027C69.7171 45.3765 69.452 44.8758 69.0488 44.5283C68.9471 44.5741 68.9826 44.7218 69.0126 44.8283C69.1687 45.3826 68.7048 45.9023 68.5427 46.4548Z" fill="#FFB61D"/>
<path fill-rule="evenodd" clip-rule="evenodd" d="M71.089 46.0869C71.1428 46.0745 71.2012 46.0591 71.2338 46.015C71.2927 45.935 71.2295 45.8235 71.1589 45.7535C70.9241 45.5206 70.5842 45.3957 70.2529 45.4206C70.1129 45.4311 69.9367 45.5684 70.0313 45.6713C70.1093 45.7561 70.0568 45.8893 70.0139 45.9959C69.971 46.1025 69.9629 46.2593 70.0723 46.2971C70.1137 46.3113 70.1592 46.3016 70.2019 46.2917C70.4976 46.2235 70.7933 46.1552 71.089 46.0869Z" fill="#FFB61D"/>
</svg>
